<svg id="draw.id" overflow="visible" v:layers="{&quot;default&quot;:{&quot;name&quot;:&quot;Default&quot;,&quot;print&quot;:1,&quot;display&quot;:1,&quot;publish&quot;:1}}" v:ver="3" x="500.5" xmlns:v="http://vecta.io" y="500.5" xmlns="http://www.w3.org/2000/svg" xmlns:xlink="http://www.w3.org/1999/xlink"><style xmlns="http://www.w3.org/1999/xhtml"><![CDATA[#draw\.id{stroke:#000;stroke-linecap:round;stroke-linejoin:round;fill:#fff;fill-rule:evenodd;font-family:Roboto;font-size:14px;text-anchor:middle}#draw\.id text{stroke:none}]]></style><defs><style type="text/css">@import url("https://fonts.googleapis.com/css?family=Roboto+Condensed:400,400i,700,700i"); @import url("https://fonts.googleapis.com/css?family=Roboto:400,400i,700,700i"); @import url("https://fonts.googleapis.com/css?family=Cousine:400,400i,700,700i"); @import url("https://fonts.googleapis.com/css?family=Anonymous+Pro:400,400i,700,700i"); @import url("https://fonts.googleapis.com/css?family=Lato:400,400i,700,700i"); @import url("https://fonts.googleapis.com/css?family=Open+Sans:400,400i,700,700i");</style><linearGradient id="L00100100000aaff10000387f.grad" x1="0%" y1="0%" x2="100%" y2="100%"><stop offset="0%" stop-color="#00aaff" stop-opacity="1"/><stop offset="100%" stop-color="#00387f" stop-opacity="1"/></linearGradient><g id="thick.end"><path d="M 0 0 L 4 5 L -4 5 Z" stroke="none"/></g></defs><title xmlns="http://www.w3.org/1999/xhtml">Demo</title><desc xmlns="http://www.w3.org/1999/xhtml"></desc><svg height="793.7008094787598" id="k118jmi25" overflow="visible" v:setup="{&quot;paper&quot;:&quot;A4&quot;,&quot;unit&quot;:&quot;px&quot;,&quot;scale&quot;:{&quot;from&quot;:1,&quot;to&quot;:1},&quot;width&quot;:1122.5197162628174,&quot;height&quot;:793.7008094787598}" viewBox="0 0 1122.5197162628174 793.7008094787598" width="1122.5197162628174"><g id="k13kkgpx12u" class="Group.cls" transform="translate(60 350)" v:abox="{&quot;x&quot;:60,&quot;y&quot;:350,&quot;width&quot;:90,&quot;height&quot;:100}" v:symbol="UGLZiZHD9Fy6cVA7Awl5kM"><g class="Prim.cls"><g id="k13kkgpy12z" transform="translate(0 59.55568293748593)" class=""><path d="M 36.0064743702403 0 C 16.1152961084292 8.6358763217917 10.1471774770393 13.2382282622455 7.7888145444439 15.3077055469353 C 4.1563249774177 18.4922509710788 2.1453708661513 30.3630926825454 0 40.4443170625141 L 90 40.4443170625141 C 87.8593377667508 30.3493219116128 85.829843413432 18.4922509710788 82.2111854555561 15.3077055469353 C 79.8528225229603 13.2382282622455 74.1072603685975 8.7551501419887 54.216155679175 0.1192738201966 Z" fill="#2574A9" fill-opacity="1" stroke="none"/><g transform="translate(0 0)" class="Text.cls"><rect x="0" y="0" width="90.00006866455078" height="40.44435119628906" fill="none" stroke="none"/><text fill="#263238" fill-opacity="1" font-weight="bold" stroke="none"/></g></g><g id="k13kkgpz130" transform="translate(23.069273483845958 3.1382905342102414)" class=""><path d="M 12.2748515161539 49.7817454289691 C 9.2396421161539 47.5569018180224 6.5739913411539 45.0127063708671 5.5655265161541 43.3948235828371 C 5.0928765161539 42.6430188032874 4.0605515161539 39.6853118737238 3.1977765161541 35.6403367939278 C 2.093801516154 34.9433124950059 1.0596765161539 33.539019996065 0.4669015161539 31.7556055955766 C -0.5043234838461 28.8339474417774 0.088076516154 26.0338258574213 1.7946765161539 25.4774356864155 C 1.8170265161539 25.4701430044441 1.8394765161541 25.4632893468055 1.861976516154 25.4568259330182 C 1.3281765161541 13.4879982328446 4.763001516154 0 21.9491265161541 0 C 39.1589765161539 0 42.5808765161541 13.5207055456325 42.0360265161541 25.4985332446269 C 43.6984765161541 26.0987038977015 44.2661765161542 28.8686791445444 43.3053765161541 31.7572397417034 C 42.7388265161539 33.4610443965252 41.7693265161539 34.8187027552347 40.721051516154 35.5440929040988 C 39.8540265161539 39.6350679778674 38.8093515161542 42.6303846586011 38.3331765161539 43.3856528523311 C 37.313161666154 45.0123123709187 34.6352922411539 47.5682558653151 31.5917265161539 49.798603670663 L 31.5917265161539 61.0381871249168 C 26.2771515161541 67.4622838442273 17.5848765161539 67.2557960664026 12.2748515161539 61.0381871249168 Z" fill="#f6d1af" fill-opacity="1" stroke="none" stroke-opacity="1" stroke-width="1px"/></g><g id="k13kkgpz131" transform="translate(16.88565828451313 0)"><path d="M 12.6476337904869 5.8459367648287 C 7.0681695404868 7.6363597253748 2.6095342404867 8.0241801379785 1.2775167154867 6.3457291383714 C 1.2775167154867 6.3457291383714 -3.5088832845131 16.2893863721697 5.4476667154865 21.4882637398092 C 6.070623115487 21.8498715704812 6.6995651904868 22.1663489192613 7.3316349904869 22.4411436393564 C 7.3469830154866 27.5539754329033 8.1780055904868 32.7740251148425 8.8484917154868 37.2686763064549 C 8.8484917154868 37.2686763064549 8.8484917154868 37.2410665539748 8.8484917154868 37.2272860679754 C 8.8484917154868 37.3190909339964 8.8857167154868 37.4154323847884 8.908741715487 37.516407981315 C 8.9730417154868 37.637651867869 9.0457417154867 37.7541640477261 9.1266667154865 37.8651884234238 C 9.3082417154868 37.9167006117969 9.5028417154865 37.8952128097342 9.6685917154866 37.8054567239325 C 9.710766715487 37.7782616055446 9.7352667154867 37.7313591726649 9.7334917154866 37.6815786913824 C 9.7891167154867 36.8602129453365 9.7334917154866 35.2312619392445 9.7334917154866 35.2128960879923 C 9.6225417154868 33.9327255240088 9.3442917154869 32.6983842223138 9.1543167154865 31.4502136541379 C 9.6997919904864 27.9987682770672 10.8872679654869 26.1510962508508 12.0715215154869 23.7723790503077 C 18.9280641654866 24.7350738022271 25.3112536154868 21.7771916775648 27.5351917154866 19.3453371913008 C 28.5855524404867 18.1968509759186 29.8723085654867 16.7943222816246 31.2120006904866 15.5151377662926 C 31.9514795904864 15.8054502160613 32.6833903404866 16.1030369819507 33.4059167154867 16.3948253827456 C 35.3517667154865 17.1841911329844 35.6437667154868 13.7563623137949 37.7937167154868 13.5912647744498 C 38.7202667154867 13.5223379542126 40.6107167154869 16.6014595020147 41.3844167154864 16.5141668305247 C 49.0389417154867 15.6194352404327 45.8373667154866 27.1093605643266 47.0233667154869 32.4184574297205 C 46.8612917154865 33.3362134070402 46.6852167154864 34.2538962136373 46.6064917154865 35.2083838934611 C 46.6064917154865 35.2083838934611 46.5555167154865 36.8557007508057 46.6064917154865 37.6769933261293 C 46.6048167154867 37.7266762464492 46.6293167154866 37.7736762402914 46.6713917154866 37.800944529402 C 46.8339917154867 37.8897493958155 47.0247667154866 37.9127737830429 47.2041167154864 37.8651884234238 C 47.2850667154867 37.7543103891705 47.3577417154868 37.6377250385911 47.4220417154868 37.516407981315 C 47.5018667154863 37.185554366126 47.5451417154865 36.8470422153548 47.5517667154869 36.506993479419 C 47.6119417154866 36.0480423200373 47.6953667154865 35.5478472636202 47.7601917154864 35.0431400126723 C 49.3029917154868 29.3165310068569 52.1479667154865 6.5477047216653 41.4587917154865 4.0835343128066 C 32.2658242404868 -3.061790507133 18.4935868654868 0.2340383537408 12.6476337904869 5.8459367648287 Z" fill="#343434" fill-opacity="1" stroke="none" stroke-opacity="1" stroke-width="1px"/></g><g id="k13kkgq0132" transform="translate(35.34014812499985 52.91712054892719)"><path d="M 19.3208268749998 0.0308951666837 L 19.3208518749994 1.0816999070593 C 19.3208518749994 1.0816999070593 14.3444018750004 6.9000406081731 9.6415268749999 6.6935528303487 C 4.9386268749998 6.4870650525234 0.0039768749999 0.6870902026627 0.0039768749999 0.6870902026627 L 0 0 C 3.3531641500001 2.4584777266786 7.1581515000002 4.5277726262974 9.6782518749997 4.5277726262974 C 12.1893985749995 4.5277726262974 15.970981175 2.4734766515427 19.3208268749998 0.0308951666837 Z" fill="#000000" fill-opacity="0.2" stroke="none"/></g></g><g class="ConnPts.cls" display="none"><use id="k13kkgpy12v" xlink:href="#connection.sym" x="45" y="-5" class=""/><use id="k13kkgpy12w" xlink:href="#connection.sym" x="-5" y="50" class=""/><use id="k13kkgpy12x" xlink:href="#connection.sym" x="45" y="105" class=""/><use id="k13kkgpy12y" xlink:href="#connection.sym" x="95" y="50" class=""/></g></g><g id="k13kkp9n1ar" transform="translate(300 130)" class="" v:symbol="VrnOpwP5kWIt1KFwPxfkny"><rect fill="none" height="610" rx="5" stroke-linejoin="miter" width="400" x="0" y="0" stroke-width="3" stroke="#4f4f4f"/><g transform="translate(0 0)" class="Text.cls"><rect x="0" y="0" width="400" height="610" fill="none" stroke="none"/><text fill="#303030" fill-opacity="1" stroke="none" class=""><tspan x="200" y="309.62"/></text></g></g><g id="k13km3ih1nv" transform="translate(55 465)" class=""><rect x="0" y="0" width="95" height="30" fill="none" stroke="none"/><g transform="translate(0 -10)" class="Text.cls"><rect x="0" y="0" width="95" height="30" fill="none" stroke="none"/><text fill="#000000" fill-opacity="1" class=""><tspan x="47.5" y="19.62">Client</tspan></text></g></g><g id="k13knjgl2ai" transform="translate(160 240)" class=""><path fill="none" d="M 0 185 L 226.49349975585938 2.8203999996185303" class="" v:end="L 230 0"/><use class="EndArrow.cls" fill="#000000" x="230" y="0" xlink:href="#thick.end" transform="scale(1) rotate(51.1886538200759 230 0)" xmlns="http://www.w3.org/2000/svg" xmlns:xlink="http://www.w3.org/1999/xlink"/><g transform="translate(0 0)" class="Text.cls"><rect x="0" y="0" width="230" height="105" fill="none" stroke="none"/><text fill="#000000" fill-opacity="1"/></g></g><g id="k13kobe92al" transform="translate(400 200)" class="" v:symbol="UrNPLsMUejDQEjsWkyAMZ1"><rect fill="#e0e0e0" height="80" rx="10" stroke="none" stroke-linejoin="miter" width="200" x="0" y="0"/><g transform="translate(0 0)" class="Text.cls"><rect x="0" y="0" width="200" height="80" fill="none" stroke="none"/><text fill="#000000" fill-opacity="1" class=""><tspan x="100" y="36.22" v:enter="true">Voir la liste des produits</tspan><tspan x="100" y="53.019999999999996">disponibles</tspan></text></g></g><g id="k13kxnat3af" transform="translate(415 145)" class=""><rect x="0" y="0" width="205" height="55" fill="none" stroke="none"/><g transform="translate(-20 -10)" class="Text.cls"><rect x="0" y="0" width="205" height="55" fill="none" stroke="none"/><text fill="#000000" fill-opacity="1" class=""><tspan x="102.5" y="32.12">E-commerce</tspan></text></g></g><g id="k13ky7z43ao" transform="translate(400 350)" class="" v:symbol="UrNPLsMUejDQEjsWkyAMZ1"><rect fill="#e0e0e0" height="80" rx="10" stroke="none" stroke-linejoin="miter" width="200" x="0" y="0"/><g transform="translate(0 0)" class="Text.cls"><rect x="0" y="0" width="200" height="80" fill="none" stroke="none"/><text fill="#000000" fill-opacity="1" class=""><tspan x="100" y="44.62">Récupérer la liste des produits</tspan></text></g></g><g id="k13kyy863aq" transform="translate(500 290)" class=""><path fill="none" d="M 1e-13 1e-13 L 0 45.5" class="" v:end="L 0 50"/><use class="EndArrow.cls" fill="#000000" x="0" y="50" xlink:href="#thick.end" transform="scale(1) rotate(180.00000250447815 0 50)"/><g transform="translate(0 0)" class="Text.cls"><rect x="0" y="0" width="230" height="105" fill="none" stroke="none"/><text fill="#000000" fill-opacity="1"/></g></g><g id="k13kzbqe3el" transform="translate(765 130)" class="" v:symbol="VrnOpwP5kWIt1KFwPxfkny"><rect fill="none" height="610" rx="5" stroke-linejoin="miter" width="400" x="0" y="0" stroke-width="3" stroke="#4f4f4f"/><g transform="translate(0 0)" class="Text.cls"><rect x="0" y="0" width="400" height="610" fill="none" stroke="none"/><text fill="#303030" fill-opacity="1" stroke="none" class=""><tspan x="200" y="309.62"/></text></g></g><g id="k13kzj5o3em" transform="translate(865 135)" class=""><rect x="0" y="0" width="205" height="55" fill="none" stroke="none"/><g transform="translate(-20 -10)" class="Text.cls"><rect x="0" y="0" width="205" height="55" fill="none" stroke="none"/><text fill="#000000" fill-opacity="1" class=""><tspan x="102.5" y="32.12">Catalogue produits</tspan></text></g></g><g id="k13kzz6m3eo" transform="translate(610 390)" class=""><path fill="none" d="M 1e-13 1e-13 L 235.5 0" class="" v:end="L 240 0"/><use class="EndArrow.cls" fill="#000000" x="240" y="0" xlink:href="#thick.end" transform="scale(1) rotate(90 240 0)"/><g transform="translate(0 0)" class="Text.cls"><rect x="0" y="0" width="230" height="105" fill="none" stroke="none"/><text fill="#000000" fill-opacity="1"/></g></g></svg></svg>