<?xml version="1.0" encoding="utf-8" standalone="no"?><!DOCTYPE svg PUBLIC "-//W3C//DTD SVG 20010904//EN" "http://www.w3.org/TR/2001/REC-SVG-20010904/DTD/svg10.dtd"><svg xmlns="http://www.w3.org/2000/svg" width="423" height="230" xmlns:xlink="http://www.w3.org/1999/xlink"><source><![CDATA[Ecommerce->CRM: Je veux les informations clients
CRM-->Ecommerce: Les voilà :)]]></source><desc></desc><defs><marker viewBox="0 0 5 5" markerWidth="5" markerHeight="5" orient="auto" refX="5" refY="2.5" id="markerArrowBlock"><path d="M 0 0 L 5 2.5 L 0 5 z"></path></marker><marker viewBox="0 0 9.6 16" markerWidth="4" markerHeight="16" orient="auto" refX="9.6" refY="8" id="markerArrowOpen"><path d="M 9.6,8 1.92,16 0,13.7 5.76,8 0,2.286 1.92,0 9.6,8 z"></path></marker></defs><g class="title"></g><g class="actor"><path d="M10,20C86.7,15.1 36.0,24.9 131.9,20.0C133.6,30.2 130.2,42.8 131.9,62.5C92.4,67.4 89.6,57.6 10.0,62.5C8.3,35.2 11.7,47.4 10.0,20.0" stroke="#000000" fill="#ffffff" style="stroke-width: 2;"></path><text x="20" y="44" style="font-size: 16px; font-family: danielbd;"><tspan x="20">Ecommerce</tspan></text></g><g class="actor"><path d="M10,167.5C93.4,162.6 45.1,172.4 131.9,167.5C133.6,174.8 130.2,177.7 131.9,210.0C29.5,205.1 48.1,214.9 10.0,210.0C11.7,186.1 8.3,203.2 10.0,167.5" stroke="#000000" fill="#ffffff" style="stroke-width: 2;"></path><text x="20" y="191.5" style="font-size: 16px; font-family: danielbd;"><tspan x="20">Ecommerce</tspan></text></g><path d="M70.9,62.5C75.1,82.0 66.7,119.3 70.9,167.5" stroke="#000000" fill="none" style="stroke-width: 2;"></path><g class="actor"><path d="M326.859375,20C377.3,22.7 344.3,17.3 393.3,20.0C395.0,26.8 391.6,42.0 393.3,62.5C367.4,59.8 366.7,65.2 326.9,62.5C325.2,37.3 328.6,44.4 326.9,20.0" stroke="#000000" fill="#ffffff" style="stroke-width: 2;"></path><text x="336.859375" y="44" style="font-size: 16px; font-family: danielbd;"><tspan x="336.859375">CRM</tspan></text></g><g class="actor"><path d="M326.859375,167.5C342.8,170.2 339.5,164.8 393.3,167.5C395.0,185.9 391.6,199.8 393.3,210.0C337.5,207.3 369.4,212.7 326.9,210.0C328.6,177.7 325.2,199.8 326.9,167.5" stroke="#000000" fill="#ffffff" style="stroke-width: 2;"></path><text x="336.859375" y="191.5" style="font-size: 16px; font-family: danielbd;"><tspan x="336.859375">CRM</tspan></text></g><path d="M360.1,62.5C364.3,150.7 355.9,102.6 360.1,167.5" stroke="#000000" fill="none" style="stroke-width: 2;"></path><g class="signal"><text x="80.9296875" y="90.25" style="font-size: 16px; font-family: danielbd;"><tspan x="80.9296875">Je veux les informations clients</tspan></text><path d="M70.9,105.0C213.7,116.6 290.7,93.4 360.1,105.0" stroke="#000000" fill="none" style="stroke-width: 2; marker-end: url(&quot;#markerArrowBlock&quot;);"></path></g><g class="signal"><text x="169.6015625" y="132.75" style="font-size: 16px; font-family: danielbd;"><tspan x="169.6015625">Les voilà :)</tspan></text><path d="M360.1,147.5C313.8,135.9 256.2,159.1 70.9,147.5" stroke="#000000" fill="none" style="stroke-width: 2; stroke-dasharray: 6, 2; marker-end: url(&quot;#markerArrowBlock&quot;);"></path></g></svg>