<?xml version="1.0" encoding="utf-8" standalone="no"?><!DOCTYPE svg PUBLIC "-//W3C//DTD SVG 20010904//EN" "http://www.w3.org/TR/2001/REC-SVG-20010904/DTD/svg10.dtd"><svg xmlns="http://www.w3.org/2000/svg" width="462" height="230" xmlns:xlink="http://www.w3.org/1999/xlink"><source><![CDATA[Ecommerce->Catalogue produits: Je veux la liste des produits
Catalogue produits-->Ecommerce: Ok la voici :)]]></source><desc></desc><defs><marker viewBox="0 0 5 5" markerWidth="5" markerHeight="5" orient="auto" refX="5" refY="2.5" id="markerArrowBlock"><path d="M 0 0 L 5 2.5 L 0 5 z"></path></marker><marker viewBox="0 0 9.6 16" markerWidth="4" markerHeight="16" orient="auto" refX="9.6" refY="8" id="markerArrowOpen"><path d="M 9.6,8 1.92,16 0,13.7 5.76,8 0,2.286 1.92,0 9.6,8 z"></path></marker></defs><g class="title"></g><g class="actor"><path d="M10,20C39.2,15.1 35.1,24.9 131.9,20.0C130.2,55.7 133.6,48.8 131.9,62.5C51.6,67.4 39.2,57.6 10.0,62.5C8.3,39.9 11.7,52.3 10.0,20.0" stroke="#000000" fill="#ffffff" style="stroke-width: 2;"></path><text x="20" y="44" style="font-size: 16px; font-family: danielbd;"><tspan x="20">Ecommerce</tspan></text></g><g class="actor"><path d="M10,167.5C97.1,162.6 105.7,172.4 131.9,167.5C130.2,191.2 133.6,203.2 131.9,210.0C112.4,214.9 38.5,205.1 10.0,210.0C8.3,182.5 11.7,177.7 10.0,167.5" stroke="#000000" fill="#ffffff" style="stroke-width: 2;"></path><text x="20" y="191.5" style="font-size: 16px; font-family: danielbd;"><tspan x="20">Ecommerce</tspan></text></g><path d="M70.9,62.5C75.1,105.4 66.7,114.6 70.9,167.5" stroke="#000000" fill="none" style="stroke-width: 2;"></path><g class="actor"><path d="M245.6171875,20C400.5,27.5 286.5,12.5 432.2,20.0C430.5,33.1 433.9,52.3 432.2,62.5C275.5,70.0 366.8,55.0 245.6,62.5C243.9,50.2 247.3,51.8 245.6,20.0" stroke="#000000" fill="#ffffff" style="stroke-width: 2;"></path><text x="255.6171875" y="44" style="font-size: 16px; font-family: danielbd;"><tspan x="255.6171875">Catalogue produits</tspan></text></g><g class="actor"><path d="M245.6171875,167.5C402.4,160.0 387.4,175.0 432.2,167.5C433.9,184.9 430.5,174.3 432.2,210.0C316.7,202.5 385.4,217.5 245.6,210.0C247.3,182.9 243.9,174.6 245.6,167.5" stroke="#000000" fill="#ffffff" style="stroke-width: 2;"></path><text x="255.6171875" y="191.5" style="font-size: 16px; font-family: danielbd;"><tspan x="255.6171875">Catalogue produits</tspan></text></g><path d="M338.9,62.5C343.1,150.7 334.7,101.0 338.9,167.5" stroke="#000000" fill="none" style="stroke-width: 2;"></path><g class="signal"><text x="80.9296875" y="90.25" style="font-size: 16px; font-family: danielbd;"><tspan x="80.9296875">Je veux la liste des produits</tspan></text><path d="M70.9,105.0C122.0,115.7 296.0,94.3 338.9,105.0" stroke="#000000" fill="none" style="stroke-width: 2; marker-end: url(&quot;#markerArrowBlock&quot;);"></path></g><g class="signal"><text x="150.2421875" y="132.75" style="font-size: 16px; font-family: danielbd;"><tspan x="150.2421875">Ok la voici :)</tspan></text><path d="M338.9,147.5C113.8,158.2 155.0,136.8 70.9,147.5" stroke="#000000" fill="none" style="stroke-width: 2; stroke-dasharray: 6, 2; marker-end: url(&quot;#markerArrowBlock&quot;);"></path></g></svg>